# xmcd
#
# Track frame offsets: 
#        150
#        18450
#        36858
#        62940
#        84840
#        97955
#        115881
#        133419
#        150977
#        176440
#        192897
#        208234
#        227625
#        257851
#        279210
#        298486
#
# Disc length: 4360 seconds
#
# Revision: 1
# Processed by: cddbd v1.5.2PL0 Copyright (c) Steve Scherf et al.
# Submitted via: ExactAudioCopy v0.99pb5
#
DISCID=e4110610
DTITLE=Various Artist - My favourites blues (Blues Rock) vol.6
DYEAR=2002
DGENRE=Blues-Rock
TTITLE0=Gov't Mule_Rocking Horse
TTITLE1=The Alex Parche Band_Cool Running Man
TTITLE2=Warren Haynes_Power And The Gliry
TTITLE3=The Allman Brothers Band_Shine It On
TTITLE4=Big George And The Business_Long Black Train
TTITLE5=The Hoax_Headless Chicken
TTITLE6=Cub Coda_Pusherman Of Love
TTITLE7=Buddah Heads_Brother Cain
TTITLE8=Gov't Mule_Mule
TTITLE9=Warren Haynes_Kiss Tomorrow Good-Bye
TTITLE10=Big George And The Business_Thunderbolt
TTITLE11=The Alex Parche Band_Run For Cover
TTITLE12=The Allman Brothers Band_Gambler's Roll
TTITLE13=Buddah Heads_Dodge The Rain
TTITLE14=Sean Chambars_Mojo Down The Road
TTITLE15=Cub Coda_Fire and Brimstone
EXTD=
EXTT0=
EXTT1=
EXTT2=
EXTT3=
EXTT4=
EXTT5=
EXTT6=
EXTT7=
EXTT8=
EXTT9=
EXTT10=
EXTT11=
EXTT12=
EXTT13=
EXTT14=
EXTT15=
PLAYORDER=
